inDegrees=no
num_controls=7
num_derivatives=13
num_iterations=112
num_multipliers=7
num_parameters=0
num_slacks=7
num_states=26
objective=5.738646
objective_accelerations=0.748015
objective_balance=0.045064
objective_effort=0.265339
objective_height=4.591264
objective_ligament=0.088964
solver_duration=1254.895423
status=Solve_Succeeded
success=true
DataType=double
version=3
OpenSimVersion=4.4-2022-07-23-0e9fedc
endheader
time	/jointset/ground_pelvis/pelvis_tilt/value	/jointset/ground_pelvis/pelvis_tx/value	/jointset/ground_pelvis/pelvis_ty/value	/jointset/hip_l/hip_flexion_l/value	/jointset/hip_l/hip_adduction_l/value	/jointset/hip_l/hip_rotation_l/value	/jointset/back/lumbar_extension/value	/jointset/patellofemoral_l/patellar_flexion_l/value	/jointset/knee_l/knee_flexion_l/value	/jointset/knee_l/knee_adduction_l/value	/jointset/knee_l/knee_rotation_l/value	/jointset/ankle_l/ankle_angle_l/value	/jointset/subtalar_l/subtalar_angle_l/value	/jointset/ground_pelvis/pelvis_tilt/speed	/jointset/ground_pelvis/pelvis_tx/speed	/jointset/ground_pelvis/pelvis_ty/speed	/jointset/hip_l/hip_flexion_l/speed	/jointset/hip_l/hip_adduction_l/speed	/jointset/hip_l/hip_rotation_l/speed	/jointset/back/lumbar_extension/speed	/jointset/patellofemoral_l/patellar_flexion_l/speed	/jointset/knee_l/knee_flexion_l/speed	/jointset/knee_l/knee_adduction_l/speed	/jointset/knee_l/knee_rotation_l/speed	/jointset/ankle_l/ankle_angle_l/speed	/jointset/subtalar_l/subtalar_angle_l/speed	/forceset/tau_hip_flexion_l	/forceset/tau_hip_adduction_l	/forceset/tau_hip_rotation_l	/forceset/tau_knee_flexion_l	/forceset/tau_ankle_angle_l	/forceset/tau_subtalar_angle_l	/forceset/tau_lumbar_extension	lambda_cid13_p0	lambda_cid13_p1	lambda_cid13_p2	lambda_cid13_p3	lambda_cid13_p4	lambda_cid13_p5	lambda_cid14_p0	/jointset/ground_pelvis/pelvis_tilt/accel	/jointset/ground_pelvis/pelvis_tx/accel	/jointset/ground_pelvis/pelvis_ty/accel	/jointset/hip_l/hip_flexion_l/accel	/jointset/hip_l/hip_adduction_l/accel	/jointset/hip_l/hip_rotation_l/accel	/jointset/back/lumbar_extension/accel	/jointset/patellofemoral_l/patellar_flexion_l/accel	/jointset/knee_l/knee_flexion_l/accel	/jointset/knee_l/knee_adduction_l/accel	/jointset/knee_l/knee_rotation_l/accel	/jointset/ankle_l/ankle_angle_l/accel	/jointset/subtalar_l/subtalar_angle_l/accel	gamma_cid13_p0	gamma_cid13_p1	gamma_cid13_p2	gamma_cid13_p3	gamma_cid13_p4	gamma_cid13_p5	gamma_cid14_p0
1	-0.4153267545586247	0.004124005127130185	0.5731461739788277	1.647532103706534	-0.4902723059520181	0.03815223834935505	-0.2617874869009121	1.5289417669822	1.528941766982212	-0.04773938997537169	-0.1745244017771605	0.4362478270475774	0.1061629007136111	-0.01694335560895428	0.008606955839106246	0.0009584924622174696	0.0002267153122568149	-0.00315490722640619	0.001044322667093844	2.423809139436782e-05	-0.0003472767859218804	-0.0003472767859212748	-0.004033895784148841	8.320596769268457e-06	0.01576263105840941	0.007930675414201253	-0.2660879973665754	0.05099277191744073	0.003080224355665438	-0.3593556073050505	-0.07233091908923138	0.01488726792440917	0.2421399985427838	-63.21170418061111	6.293001999892899	-3.270301238249139	16.38027188538248	-642.1213085867743	-53.4327875060894	-0.02957246014694826	1.110263713794694	-0.006913517623380872	1.995210855840846	-6.129394468752963	0.1236323936395218	-2.483107482212048	-0.01311450896086906	-5.768162559218871	-5.768162559218883	-0.7248681809873738	-0.03671023556466019	-1.531608779044463	-1.031646073789711	2.475428086327295e-09	1.961625813607715e-08	-1.363991646637932e-08	3.537618515033589e-09	-8.469916176612953e-10	3.793971349622912e-08	1.054586853359875e-10
1.01	-0.4154413970317181	0.004209713484537727	0.5732553664015027	1.647228993189873	-0.490296828969723	0.03803756631467616	-0.2617871032966532	1.528650159721187	1.52865015972119	-0.04781353435137248	-0.1745244392858682	0.4363291240116806	0.106192277353169	-0.005984364123704137	0.008537713521564985	0.02087553748726009	-0.06083976185414952	-0.001749865295657194	-0.02397604159861801	5.152949374436789e-05	-0.05796860719158612	-0.05796860719158491	-0.01079553560247227	-2.243898591848909e-05	0.0004931756078388203	-0.002058498227559575	-0.265984585996975	0.05101502069365074	0.003066810936474678	-0.3591756994399389	-0.07234814053715242	0.01491986290514521	0.242058889485654	-63.20026848365161	6.268084500740942	-3.256323633564247	16.28298508258294	-641.9403843870487	-53.44560050491432	-0.02957831272300159	1.088831840324425	-0.006479725571776463	1.989280947000173	-6.093917280823473	0.1489125717053996	-2.511105159226907	0.01050797421956207	-5.758280408247808	-5.758280408247789	-0.6519012688451871	0.0127570659005065	-1.525152682687254	-0.9830292366639158	-6.707516553190083e-09	-8.812707194352223e-11	3.119847770925096e-08	9.33240065810504e-10	-1.085385574110958e-08	6.990784603011598e-08	-1.306293060641715e-08
1.02	-0.4154464265950725	0.004294819391418927	0.5735635951986614	1.646315489313493	-0.4903073070723421	0.03767276978525395	-0.2617864753765335	1.527782506730716	1.527782506730714	-0.04795531300287368	-0.1745249812132404	0.436257618670316	0.1061216670108487	0.004979226338919394	0.008486465733837902	0.04076576735887314	-0.1218519566301239	-0.0003459242083966391	-0.04898057628337372	7.310127155966607e-05	-0.1155564226775514	-0.1155564226775494	-0.01756075088441255	-9.256314775490923e-05	-0.01479783002768465	-0.01206672096110555	-0.2658811746274044	0.05103726946985127	0.003053397517232384	-0.358995791574826	-0.0723653619850676	0.01495245788587145	0.241977780428499	-63.19640161420208	6.244723182205392	-3.242857849659057	16.22462203674859	-641.8786567429496	-53.43713890194839	-0.02958219171634007	1.111183509269391	-0.003314611660550373	1.989847825154927	-6.118537990666569	0.1234122249418236	-2.479941566020826	-0.01425843386824221	-5.761459575279069	-5.761459575279046	-0.7255832737107474	-0.04458315139441966	-1.535918816035048	-1.035455892146764	-1.479652020578599e-08	-1.589720453468535e-08	7.551843509511678e-08	-6.142405881208454e-10	-2.049824823772301e-08	1.030934668653733e-07	-2.538510765140176e-08
1.03	-0.4153417734130828	0.004379514770830562	0.5740705164758299	1.644792311929336	-0.4903036474096655	0.03705814563191927	-0.2617856859571562	1.526339219082781	1.526339219082506	-0.04816468508203204	-0.1745262878052807	0.4360330205729804	0.1059510266378303	0.0159542050542022	0.00845676052323365	0.0606064929467307	-0.1827565858070085	0.001088563821897261	-0.073926663147228	8.160443006625297e-05	-0.1730880707075618	-0.1730880707075594	-0.02430696642256979	-0.0001607198007937278	-0.03013269424964215	-0.02204889479510355	-0.2655398962700137	0.05105748398088825	0.003008869218264142	-0.3585556980708765	-0.07229858857039323	0.01505518356332679	0.2417190189825998	-63.13815218504228	6.163814507477588	-3.200151072550492	16.10968165232311	-641.4777541512047	-53.48903449372395	-0.02960091039136329	1.091071493568061	-0.002176359274133574	1.979379570184516	-6.072388551954083	0.155059475189061	-2.499326745623035	0.007927962943601418	-5.74705437240198	-5.747054372401962	-0.6481542843459936	0.01330061442880522	-1.533909360242436	-0.9777383375369886	-2.287436119525005e-08	-3.166653395921002e-08	1.198331023096585e-07	-2.150936570671661e-09	-3.013894204426669e-08	1.362915110506445e-07	-3.769864987754179e-08
1.04	-0.4151272871557649	0.004464037521433011	0.5747754839377941	1.642660895619256	-0.4902853243900659	0.03619458371015889	-0.2617849068517357	1.524321007563439	1.524321007562891	-0.04844132203465651	-0.1745280294564292	0.4356547460064243	0.1056809364847685	0.02694584140590931	0.008451939972000782	0.08037500431792068	-0.2434997418140814	0.00258674717681802	-0.09876812997329035	7.103847791731731e-05	-0.2305411969591702	-0.2305411969591677	-0.031013725579839	-0.0001795749863330625	-0.04553312387025344	-0.03195667696952563	-0.2651986179125909	0.05107769849197058	0.002964340919289632	-0.3581156045669243	-0.07223181515570655	0.01515790924086996	0.2414602575367286	-63.08755937024213	6.084533066389548	-3.158031050930421	16.03382135103398	-641.1964640106053	-53.51997980656704	-0.02962349687656193	1.114515036554316	0.001662320213645819	1.975404981821417	-6.086243356704163	0.1361512898673798	-2.459017558462292	-0.01807225599988731	-5.745755219598726	-5.745755219598793	-0.7176919975330539	-0.03472285789414874	-1.549031895765928	-1.020577560231371	-3.144936861226751e-08	-4.826118187538264e-08	1.634895251667516e-07	-3.268156383881703e-09	-3.971736244105702e-08	1.676817851529127e-07	-4.994894090730908e-08
1.05	-0.4148027491656321	0.004548673034744006	0.5756777041624986	1.639922958025431	-0.490251679292062	0.0350832088469297	-0.2617843354947925	1.521728743588753	1.521728743588428	-0.04878480578432848	-0.1745297529707663	0.4351220999073998	0.1053121773248693	0.0379688583251333	0.008482863048584153	0.1000498922266575	-0.3040498426897892	0.004156996007106532	-0.1234807724269126	4.028988342301074e-05	-0.2878899815952922	-0.2878899815952909	-0.03767195852702673	-0.0001562449812262656	-0.06101029303978264	-0.04177533188424633	-0.2646283449107591	0.05106073338542401	0.002889307034977376	-0.3574480136507642	-0.0720184485599531	0.01533565447055329	0.2410419617407561	-62.96222858051843	5.940674592830547	-3.084016001328018	15.85926623041484	-640.5941140987322	-53.61804413454	-0.03017292954416409	1.097255944438899	0.004961469553190426	1.960648480385058	-6.033708491295944	0.1696454263576136	-2.473516045279973	0.00398238265419726	-5.726185064886021	-5.726185064886109	-0.6382598476331874	0.02223901449803465	-1.549195232443145	-0.9595499813686138	-4.0039912480146e-08	-6.488162099441926e-08	2.071253778876743e-07	-4.372267566799849e-09	-4.929383679379257e-08	1.990155664400871e-07	-6.219725533718972e-08
1.06	-0.4143677688213525	0.004633848612455058	0.5767760968232881	1.636580656415186	-0.4902018949564091	0.03372548186789795	-0.2617841599149389	1.518563642771853	1.518563642771751	-0.04919454604432513	-0.1745309675689177	0.4344342549556965	0.1048458235109664	0.04903431223767273	0.008559952852012468	0.1196094915347959	-0.364372545097167	0.005814594707302158	-0.1480385531392454	-8.11695792293071e-06	-0.3451085654020978	-0.3451085654020964	-0.04426502764707928	-7.779158472693167e-05	-0.07657289440518265	-0.05147560777001862	-0.2640580719088875	0.05104376827893706	0.002814273150651353	-0.3567804227346031	-0.0718050819641859	0.01551339970034973	0.2406236659448149	-62.84467019270893	5.798412590663098	-3.010524529794805	15.72369684549358	-640.1111158578603	-53.69625978607511	-0.03197464812838362	1.123002435217431	0.01089566558264168	1.952347261701709	-6.040763663038142	0.1536212638486331	-2.428045210204521	-0.02160390537047571	-5.719715053735379	-5.719715053735205	-0.7046592321061007	-0.02369817961604553	-1.566118334940113	-0.996901754441992	-4.706479183395537e-08	-7.60556335943287e-08	2.499713490123996e-07	-3.762397297294446e-09	-5.845328603857316e-08	2.293079484952405e-07	-7.286200482873254e-08
1.07	-0.4138219439973275	0.004720047011048583	0.5780694462178964	1.632636428884921	-0.490134978435748	0.03212311349279089	-0.261784508054956	1.514827045811601	1.514827045811579	-0.04966983069419153	-0.1745309399152606	0.4335903058184304	0.1042832466222294	0.0601343012845884	0.00868939345450968	0.1390349185360158	-0.4244176716473527	0.007597463599786633	-0.1723914979344343	-5.834622016201069e-05	-0.4021854742388996	-0.4021854742389039	-0.05077313735087367	0.0001164422724547538	-0.09223551437651235	-0.0609970125185117	-0.263269933353303	0.05102367946786215	0.002709948877548654	-0.3559071143391098	-0.07145888355992253	0.01575505738949716	0.2400533135092844	-62.6604327160746	5.600533039379664	-2.909678605178394	15.50756561649073	-639.342172253828	-53.83183238587473	-0.03572567978840024	1.104038853772319	0.01541764341712918	1.933806444318747	-5.978100530590317	0.1948968026388599	-2.432428312070562	0.003742286670156812	-5.697859098994006	-5.69785909899495	-0.6211130031415774	0.04601623159577169	-1.569129018557599	-0.9233668671110082	-5.400639116042062e-08	-8.693994265598666e-08	2.927753051586037e-07	-3.06135780159629e-09	-6.75905530967604e-08	2.595449369742225e-07	-8.344252214270421e-08
